<?xml version="1.0" encoding="UTF-8" standalone="no"?>
<!DOCTYPE svg PUBLIC "-//W3C//DTD SVG 1.1//EN"
 "http://www.w3.org/Graphics/SVG/1.1/DTD/svg11.dtd">
<!-- Generated by graphviz version 2.43.0 (0)
 -->
<!-- Title: dtu_architecture Pages: 1 -->
<svg width="624pt" height="370pt"
 viewBox="0.00 0.00 623.50 370.44" xmlns="http://www.w3.org/2000/svg" xmlns:xlink="http://www.w3.org/1999/xlink">
<g id="graph0" class="graph" transform="scale(1 1) rotate(0) translate(4 366.44)">
<title>dtu_architecture</title>
<polygon fill="white" stroke="transparent" points="-4,4 -4,-366.44 619.5,-366.44 619.5,4 -4,4"/>
<text text-anchor="middle" x="307.75" y="-347.24" font-family="Helvetica,sans-Serif" font-size="14.00">amplifier&#45;bundle&#45;digital&#45;twin&#45;universe</text>
<g id="clust1" class="cluster">
<title>cluster_dtu</title>
<path fill="none" stroke="#666666" stroke-dasharray="5,2" d="M20,-8C20,-8 404,-8 404,-8 410,-8 416,-14 416,-20 416,-20 416,-191.44 416,-191.44 416,-197.44 410,-203.44 404,-203.44 404,-203.44 20,-203.44 20,-203.44 14,-203.44 8,-197.44 8,-191.44 8,-191.44 8,-20 8,-20 8,-14 14,-8 20,-8"/>
<text text-anchor="middle" x="212" y="-190.64" font-family="Helvetica,sans-Serif" font-size="11.00">Digital Twin Universe &#160;(on&#45;demand, isolated)</text>
</g>
<g id="clust2" class="cluster">
<title>cluster_catalog</title>
<path fill="#f5f5f5" stroke="#999999" d="M28,-16C28,-16 396,-16 396,-16 402,-16 408,-22 408,-28 408,-28 408,-76 408,-76 408,-82 402,-88 396,-88 396,-88 28,-88 28,-88 22,-88 16,-82 16,-76 16,-76 16,-28 16,-28 16,-22 22,-16 28,-16"/>
<text text-anchor="middle" x="212" y="-76.8" font-family="Helvetica,sans-Serif" font-size="9.00">Profile&#45;defined internals</text>
</g>
<!-- consumer -->
<g id="node1" class="node">
<title>consumer</title>
<path fill="#e8f0fe" stroke="black" d="M219,-339.44C219,-339.44 155,-339.44 155,-339.44 149,-339.44 143,-333.44 143,-327.44 143,-327.44 143,-315.44 143,-315.44 143,-309.44 149,-303.44 155,-303.44 155,-303.44 219,-303.44 219,-303.44 225,-303.44 231,-309.44 231,-315.44 231,-315.44 231,-327.44 231,-327.44 231,-333.44 225,-339.44 219,-339.44"/>
<text text-anchor="middle" x="187" y="-317.74" font-family="Helvetica,sans-Serif" font-size="14.00">Consumer</text>
</g>
<!-- exec_box -->
<g id="node3" class="node">
<title>exec_box</title>
<path fill="#f8d7da" stroke="black" d="M89,-266.44C89,-266.44 59,-266.44 59,-266.44 53,-266.44 47,-260.44 47,-254.44 47,-254.44 47,-242.44 47,-242.44 47,-236.44 53,-230.44 59,-230.44 59,-230.44 89,-230.44 89,-230.44 95,-230.44 101,-236.44 101,-242.44 101,-242.44 101,-254.44 101,-254.44 101,-260.44 95,-266.44 89,-266.44"/>
<text text-anchor="middle" x="74" y="-244.74" font-family="Helvetica,sans-Serif" font-size="14.00">Exec</text>
</g>
<!-- consumer&#45;&gt;exec_box -->
<g id="edge6" class="edge">
<title>consumer&#45;&gt;exec_box</title>
<path fill="none" stroke="black" d="M159.93,-303.43C144.95,-294.02 126.13,-282.19 109.93,-272.01"/>
<polygon fill="black" stroke="black" points="111.57,-268.91 101.24,-266.55 107.84,-274.83 111.57,-268.91"/>
</g>
<!-- observe_box -->
<g id="node4" class="node">
<title>observe_box</title>
<path fill="#f8d7da" stroke="black" d="M182.5,-266.44C182.5,-266.44 131.5,-266.44 131.5,-266.44 125.5,-266.44 119.5,-260.44 119.5,-254.44 119.5,-254.44 119.5,-242.44 119.5,-242.44 119.5,-236.44 125.5,-230.44 131.5,-230.44 131.5,-230.44 182.5,-230.44 182.5,-230.44 188.5,-230.44 194.5,-236.44 194.5,-242.44 194.5,-242.44 194.5,-254.44 194.5,-254.44 194.5,-260.44 188.5,-266.44 182.5,-266.44"/>
<text text-anchor="middle" x="157" y="-244.74" font-family="Helvetica,sans-Serif" font-size="14.00">Observe</text>
</g>
<!-- consumer&#45;&gt;observe_box -->
<g id="edge7" class="edge">
<title>consumer&#45;&gt;observe_box</title>
<path fill="none" stroke="black" d="M179.74,-303.25C176.27,-295.05 172.05,-285.06 168.19,-275.92"/>
<polygon fill="black" stroke="black" points="171.31,-274.32 164.2,-266.47 164.86,-277.04 171.31,-274.32"/>
</g>
<!-- simulate_box -->
<g id="node5" class="node">
<title>simulate_box</title>
<path fill="#f8d7da" stroke="black" d="M277.5,-266.44C277.5,-266.44 224.5,-266.44 224.5,-266.44 218.5,-266.44 212.5,-260.44 212.5,-254.44 212.5,-254.44 212.5,-242.44 212.5,-242.44 212.5,-236.44 218.5,-230.44 224.5,-230.44 224.5,-230.44 277.5,-230.44 277.5,-230.44 283.5,-230.44 289.5,-236.44 289.5,-242.44 289.5,-242.44 289.5,-254.44 289.5,-254.44 289.5,-260.44 283.5,-266.44 277.5,-266.44"/>
<text text-anchor="middle" x="251" y="-244.74" font-family="Helvetica,sans-Serif" font-size="14.00">Simulate</text>
</g>
<!-- consumer&#45;&gt;simulate_box -->
<g id="edge8" class="edge">
<title>consumer&#45;&gt;simulate_box</title>
<path fill="none" stroke="black" d="M202.49,-303.25C210.43,-294.44 220.24,-283.56 228.95,-273.9"/>
<polygon fill="black" stroke="black" points="231.55,-276.24 235.65,-266.47 226.35,-271.55 231.55,-276.24"/>
</g>
<!-- app -->
<g id="node6" class="node">
<title>app</title>
<path fill="#e8f0fe" stroke="black" d="M356,-175.44C356,-175.44 146,-175.44 146,-175.44 140,-175.44 134,-169.44 134,-163.44 134,-163.44 134,-149.44 134,-149.44 134,-143.44 140,-137.44 146,-137.44 146,-137.44 356,-137.44 356,-137.44 362,-137.44 368,-143.44 368,-149.44 368,-149.44 368,-163.44 368,-163.44 368,-169.44 362,-175.44 356,-175.44"/>
<text text-anchor="middle" x="251" y="-160.24" font-family="Helvetica,sans-Serif" font-size="14.00">Application / system under test</text>
<text text-anchor="middle" x="251" y="-145.24" font-family="Helvetica,sans-Serif" font-size="14.00">(clone, install, run)</text>
</g>
<!-- consumer&#45;&gt;app -->
<g id="edge5" class="edge">
<title>consumer&#45;&gt;app</title>
<path fill="none" stroke="black" stroke-dasharray="5,2" d="M231.13,-311.25C255.65,-303.65 284.13,-290.11 299,-266.44 309.5,-249.72 305.49,-230.32 296.34,-212.55"/>
<polygon fill="black" stroke="black" points="299.13,-210.38 291.13,-203.43 293.05,-213.85 299.13,-210.38"/>
<text text-anchor="middle" x="343.5" y="-251.44" font-family="Helvetica,sans-Serif" font-size="10.00">Lifecycle:</text>
<text text-anchor="middle" x="343.5" y="-240.44" font-family="Helvetica,sans-Serif" font-size="10.00">create / destroy</text>
</g>
<!-- profile -->
<g id="node2" class="node">
<title>profile</title>
<polygon fill="#fff8e1" stroke="black" points="482,-339.44 390,-339.44 390,-303.44 488,-303.44 488,-333.44 482,-339.44"/>
<polyline fill="none" stroke="black" points="482,-339.44 482,-333.44 "/>
<polyline fill="none" stroke="black" points="488,-333.44 482,-333.44 "/>
<text text-anchor="middle" x="439" y="-317.74" font-family="Helvetica,sans-Serif" font-size="14.00">profile.yaml</text>
</g>
<!-- profile&#45;&gt;app -->
<g id="edge4" class="edge">
<title>profile&#45;&gt;app</title>
<path fill="none" stroke="black" stroke-dasharray="5,2" d="M432.29,-303.34C423.9,-283.73 407.93,-251.58 386,-230.44 378,-222.72 369.02,-215.58 359.59,-209.04"/>
<polygon fill="black" stroke="black" points="361.47,-206.08 351.21,-203.44 357.58,-211.9 361.47,-206.08"/>
<text text-anchor="middle" x="431" y="-245.94" font-family="Helvetica,sans-Serif" font-size="10.00">defines</text>
</g>
<!-- exec_box&#45;&gt;app -->
<g id="edge9" class="edge">
<title>exec_box&#45;&gt;app</title>
<path fill="none" stroke="black" d="M101.27,-233.57C115.15,-226.52 132.96,-217.46 151.44,-208.06"/>
<polygon fill="black" stroke="black" points="153.21,-211.09 160.54,-203.43 150.04,-204.85 153.21,-211.09"/>
</g>
<!-- observe_box&#45;&gt;app -->
<g id="edge10" class="edge">
<title>observe_box&#45;&gt;app</title>
<path fill="none" stroke="black" d="M175.12,-230.08C181.15,-224.32 188.21,-217.56 195.55,-210.53"/>
<polygon fill="black" stroke="black" points="198.15,-212.88 202.96,-203.44 193.31,-207.82 198.15,-212.88"/>
</g>
<!-- simulate_box&#45;&gt;app -->
<g id="edge11" class="edge">
<title>simulate_box&#45;&gt;app</title>
<path fill="none" stroke="black" d="M251,-230.08C251,-225.16 251,-219.51 251,-213.59"/>
<polygon fill="black" stroke="black" points="254.5,-213.44 251,-203.44 247.5,-213.44 254.5,-213.44"/>
</g>
<!-- svc_a -->
<g id="node7" class="node">
<title>svc_a</title>
<path fill="#e8f0fe" stroke="black" d="M80,-62C80,-62 36,-62 36,-62 30,-62 24,-56 24,-50 24,-50 24,-36 24,-36 24,-30 30,-24 36,-24 36,-24 80,-24 80,-24 86,-24 92,-30 92,-36 92,-36 92,-50 92,-50 92,-56 86,-62 80,-62"/>
<text text-anchor="middle" x="58" y="-46.8" font-family="Helvetica,sans-Serif" font-size="14.00">Mock</text>
<text text-anchor="middle" x="58" y="-31.8" font-family="Helvetica,sans-Serif" font-size="14.00">Service</text>
</g>
<!-- app&#45;&gt;svc_a -->
<g id="edge1" class="edge">
<title>app&#45;&gt;svc_a</title>
<path fill="none" stroke="black" d="M198.47,-137.41C168.46,-125.79 130.96,-108.93 101,-88 93.57,-82.81 86.35,-76.23 80.01,-69.75"/>
<polygon fill="black" stroke="black" points="82.4,-67.19 73.01,-62.28 77.29,-71.97 82.4,-67.19"/>
<text text-anchor="middle" x="167.5" y="-105.94" font-family="Helvetica,sans-Serif" font-size="10.00">calls</text>
</g>
<!-- svc_b -->
<g id="node8" class="node">
<title>svc_b</title>
<path fill="#e8f0fe" stroke="black" d="M240,-62C240,-62 122,-62 122,-62 116,-62 110,-56 110,-50 110,-50 110,-36 110,-36 110,-30 116,-24 122,-24 122,-24 240,-24 240,-24 246,-24 252,-30 252,-36 252,-36 252,-50 252,-50 252,-56 246,-62 240,-62"/>
<text text-anchor="middle" x="181" y="-46.8" font-family="Helvetica,sans-Serif" font-size="14.00">Local dependency</text>
<text text-anchor="middle" x="181" y="-31.8" font-family="Helvetica,sans-Serif" font-size="14.00">source</text>
</g>
<!-- app&#45;&gt;svc_b -->
<g id="edge2" class="edge">
<title>app&#45;&gt;svc_b</title>
<path fill="none" stroke="black" d="M239.44,-137.04C228.08,-118.94 210.61,-91.13 197.73,-70.63"/>
<polygon fill="black" stroke="black" points="200.63,-68.67 192.34,-62.06 194.7,-72.39 200.63,-68.67"/>
<text text-anchor="middle" x="239.5" y="-105.94" font-family="Helvetica,sans-Serif" font-size="10.00">calls</text>
</g>
<!-- svc_c -->
<g id="node9" class="node">
<title>svc_c</title>
<path fill="#e8f0fe" stroke="black" d="M387.5,-62C387.5,-62 282.5,-62 282.5,-62 276.5,-62 270.5,-56 270.5,-50 270.5,-50 270.5,-36 270.5,-36 270.5,-30 276.5,-24 282.5,-24 282.5,-24 387.5,-24 387.5,-24 393.5,-24 399.5,-30 399.5,-36 399.5,-36 399.5,-50 399.5,-50 399.5,-56 393.5,-62 387.5,-62"/>
<text text-anchor="middle" x="335" y="-46.8" font-family="Helvetica,sans-Serif" font-size="14.00">Other simulated</text>
<text text-anchor="middle" x="335" y="-31.8" font-family="Helvetica,sans-Serif" font-size="14.00">infrastructure</text>
</g>
<!-- app&#45;&gt;svc_c -->
<!-- external -->
<g id="node10" class="node">
<title>external</title>
<path fill="#f5f5f5" stroke="black" d="M615.5,-72.76C615.5,-76.41 572.7,-79.38 520,-79.38 467.3,-79.38 424.5,-76.41 424.5,-72.76 424.5,-72.76 424.5,-13.24 424.5,-13.24 424.5,-9.59 467.3,-6.62 520,-6.62 572.7,-6.62 615.5,-9.59 615.5,-13.24 615.5,-13.24 615.5,-72.76 615.5,-72.76"/>
<path fill="none" stroke="black" d="M615.5,-72.76C615.5,-69.11 572.7,-66.15 520,-66.15 467.3,-66.15 424.5,-69.11 424.5,-72.76"/>
<text text-anchor="middle" x="520" y="-54.3" font-family="Helvetica,sans-Serif" font-size="14.00">External services</text>
<text text-anchor="middle" x="520" y="-39.3" font-family="Helvetica,sans-Serif" font-size="14.00">(LLM, OAuth, Git hosting,</text>
<text text-anchor="middle" x="520" y="-24.3" font-family="Helvetica,sans-Serif" font-size="14.00">package registries, ...)</text>
</g>
<!-- app&#45;&gt;external -->
<g id="edge12" class="edge">
<title>app&#45;&gt;external</title>
<path fill="none" stroke="#888888" stroke-dasharray="1,5" d="M416,-87.08C420.65,-85.16 425.25,-83.25 429.78,-81.37"/>
<polygon fill="#888888" stroke="#888888" points="431.19,-84.58 439.09,-77.52 428.51,-78.11 431.19,-84.58"/>
<text text-anchor="middle" x="442.5" y="-111.44" font-family="Helvetica,sans-Serif" font-size="10.00" fill="#888888">passthrough</text>
<text text-anchor="middle" x="442.5" y="-100.44" font-family="Helvetica,sans-Serif" font-size="10.00" fill="#888888">(credentials forwarded)</text>
</g>
</g>
</svg>
