<?xml version="1.0" encoding="UTF-8" standalone="no"?>
<!DOCTYPE svg PUBLIC "-//W3C//DTD SVG 1.1//EN"
 "http://www.w3.org/Graphics/SVG/1.1/DTD/svg11.dtd">
<!-- Generated by graphviz version 2.43.0 (0)
 -->
<!-- Title: amplifier_user_sim_launch_flow Pages: 1 -->
<svg width="917pt" height="1129pt"
 viewBox="0.00 0.00 917.00 1128.74" xmlns="http://www.w3.org/2000/svg" xmlns:xlink="http://www.w3.org/1999/xlink">
<g id="graph0" class="graph" transform="scale(1 1) rotate(0) translate(4 1124.74)">
<title>amplifier_user_sim_launch_flow</title>
<polygon fill="white" stroke="transparent" points="-4,4 -4,-1124.74 913,-1124.74 913,4 -4,4"/>
<text text-anchor="middle" x="454.5" y="-1105.54" font-family="Helvetica,sans-Serif" font-size="14.00">amplifier&#45;bundle&#45;digital&#45;twin&#45;universe launch flow: amplifier&#45;user&#45;sim</text>
<g id="clust1" class="cluster">
<title>cluster_pre</title>
<polygon fill="none" stroke="#6c757d" stroke-dasharray="5,2" points="8,-862.74 8,-1089.74 527,-1089.74 527,-862.74 8,-862.74"/>
<text text-anchor="middle" x="267.5" y="-1074.54" font-family="Helvetica,sans-Serif" font-size="14.00" fill="#6c757d">Host pre&#45;launch setup</text>
</g>
<g id="clust2" class="cluster">
<title>cluster_post</title>
<polygon fill="none" stroke="#6c757d" stroke-dasharray="5,2" points="200,-8 200,-158 746,-158 746,-8 200,-8"/>
<text text-anchor="middle" x="473" y="-142.8" font-family="Helvetica,sans-Serif" font-size="14.00" fill="#6c757d">Post&#45;launch usage</text>
</g>
<!-- create_gitea -->
<g id="node1" class="node">
<title>create_gitea</title>
<path fill="#f8d7da" stroke="black" d="M302,-1058.74C302,-1058.74 162,-1058.74 162,-1058.74 156,-1058.74 150,-1052.74 150,-1046.74 150,-1046.74 150,-1032.74 150,-1032.74 150,-1026.74 156,-1020.74 162,-1020.74 162,-1020.74 302,-1020.74 302,-1020.74 308,-1020.74 314,-1026.74 314,-1032.74 314,-1032.74 314,-1046.74 314,-1046.74 314,-1052.74 308,-1058.74 302,-1058.74"/>
<text text-anchor="middle" x="232" y="-1043.54" font-family="Helvetica,sans-Serif" font-size="14.00">Create Gitea</text>
<text text-anchor="middle" x="232" y="-1028.54" font-family="Helvetica,sans-Serif" font-size="14.00">amplifier&#45;gitea create</text>
</g>
<!-- mirror_core -->
<g id="node2" class="node">
<title>mirror_core</title>
<path fill="#f8d7da" stroke="black" d="M177.5,-983.74C177.5,-983.74 28.5,-983.74 28.5,-983.74 22.5,-983.74 16.5,-977.74 16.5,-971.74 16.5,-971.74 16.5,-957.74 16.5,-957.74 16.5,-951.74 22.5,-945.74 28.5,-945.74 28.5,-945.74 177.5,-945.74 177.5,-945.74 183.5,-945.74 189.5,-951.74 189.5,-957.74 189.5,-957.74 189.5,-971.74 189.5,-971.74 189.5,-977.74 183.5,-983.74 177.5,-983.74"/>
<text text-anchor="middle" x="103" y="-968.54" font-family="Helvetica,sans-Serif" font-size="14.00">Mirror amplifier&#45;core</text>
<text text-anchor="middle" x="103" y="-953.54" font-family="Helvetica,sans-Serif" font-size="14.00">from GitHub into Gitea</text>
</g>
<!-- create_gitea&#45;&gt;mirror_core -->
<g id="edge1" class="edge">
<title>create_gitea&#45;&gt;mirror_core</title>
<path fill="none" stroke="black" d="M200.11,-1020.7C183.21,-1011.13 162.26,-999.27 144.14,-989.02"/>
<polygon fill="black" stroke="black" points="145.39,-985.71 134.97,-983.83 141.95,-991.8 145.39,-985.71"/>
</g>
<!-- mirror_provider -->
<g id="node3" class="node">
<title>mirror_provider</title>
<path fill="#f8d7da" stroke="black" d="M506.5,-983.74C506.5,-983.74 219.5,-983.74 219.5,-983.74 213.5,-983.74 207.5,-977.74 207.5,-971.74 207.5,-971.74 207.5,-957.74 207.5,-957.74 207.5,-951.74 213.5,-945.74 219.5,-945.74 219.5,-945.74 506.5,-945.74 506.5,-945.74 512.5,-945.74 518.5,-951.74 518.5,-957.74 518.5,-957.74 518.5,-971.74 518.5,-971.74 518.5,-977.74 512.5,-983.74 506.5,-983.74"/>
<text text-anchor="middle" x="363" y="-968.54" font-family="Helvetica,sans-Serif" font-size="14.00">Mirror amplifier&#45;module&#45;provider&#45;anthropic</text>
<text text-anchor="middle" x="363" y="-953.54" font-family="Helvetica,sans-Serif" font-size="14.00">from GitHub into Gitea</text>
</g>
<!-- create_gitea&#45;&gt;mirror_provider -->
<g id="edge2" class="edge">
<title>create_gitea&#45;&gt;mirror_provider</title>
<path fill="none" stroke="black" d="M264.38,-1020.7C281.7,-1011.04 303.21,-999.06 321.72,-988.74"/>
<polygon fill="black" stroke="black" points="323.5,-991.76 330.54,-983.83 320.1,-985.64 323.5,-991.76"/>
</g>
<!-- push_core -->
<g id="node4" class="node">
<title>push_core</title>
<path fill="#f8d7da" stroke="black" d="M263,-908.74C263,-908.74 39,-908.74 39,-908.74 33,-908.74 27,-902.74 27,-896.74 27,-896.74 27,-882.74 27,-882.74 27,-876.74 33,-870.74 39,-870.74 39,-870.74 263,-870.74 263,-870.74 269,-870.74 275,-876.74 275,-882.74 275,-882.74 275,-896.74 275,-896.74 275,-902.74 269,-908.74 263,-908.74"/>
<text text-anchor="middle" x="151" y="-893.54" font-family="Helvetica,sans-Serif" font-size="14.00">Push local amplifier&#45;core changes</text>
<text text-anchor="middle" x="151" y="-878.54" font-family="Helvetica,sans-Serif" font-size="14.00">to Gitea main</text>
</g>
<!-- mirror_core&#45;&gt;push_core -->
<g id="edge3" class="edge">
<title>mirror_core&#45;&gt;push_core</title>
<path fill="none" stroke="black" d="M114.87,-945.7C120.46,-937.18 127.25,-926.86 133.43,-917.46"/>
<polygon fill="black" stroke="black" points="136.54,-919.11 139.1,-908.83 130.69,-915.26 136.54,-919.11"/>
</g>
<!-- push_provider -->
<g id="node5" class="node">
<title>push_provider</title>
<path fill="#f8d7da" stroke="black" d="M499,-908.74C499,-908.74 311,-908.74 311,-908.74 305,-908.74 299,-902.74 299,-896.74 299,-896.74 299,-882.74 299,-882.74 299,-876.74 305,-870.74 311,-870.74 311,-870.74 499,-870.74 499,-870.74 505,-870.74 511,-876.74 511,-882.74 511,-882.74 511,-896.74 511,-896.74 511,-902.74 505,-908.74 499,-908.74"/>
<text text-anchor="middle" x="405" y="-893.54" font-family="Helvetica,sans-Serif" font-size="14.00">Push local provider changes</text>
<text text-anchor="middle" x="405" y="-878.54" font-family="Helvetica,sans-Serif" font-size="14.00">to Gitea main</text>
</g>
<!-- mirror_provider&#45;&gt;push_provider -->
<g id="edge4" class="edge">
<title>mirror_provider&#45;&gt;push_provider</title>
<path fill="none" stroke="black" d="M373.38,-945.7C378.23,-937.27 384.1,-927.07 389.46,-917.75"/>
<polygon fill="black" stroke="black" points="392.64,-919.24 394.59,-908.83 386.57,-915.75 392.64,-919.24"/>
</g>
<!-- load_profile -->
<g id="node8" class="node">
<title>load_profile</title>
<path fill="#e8f0fe" stroke="black" d="M648,-823.74C648,-823.74 502,-823.74 502,-823.74 496,-823.74 490,-817.74 490,-811.74 490,-811.74 490,-797.74 490,-797.74 490,-791.74 496,-785.74 502,-785.74 502,-785.74 648,-785.74 648,-785.74 654,-785.74 660,-791.74 660,-797.74 660,-797.74 660,-811.74 660,-811.74 660,-817.74 654,-823.74 648,-823.74"/>
<text text-anchor="middle" x="575" y="-808.54" font-family="Helvetica,sans-Serif" font-size="14.00">Load profile</text>
<text text-anchor="middle" x="575" y="-793.54" font-family="Helvetica,sans-Serif" font-size="14.00">+ substitute variables</text>
</g>
<!-- push_core&#45;&gt;load_profile -->
<g id="edge5" class="edge">
<title>push_core&#45;&gt;load_profile</title>
<path fill="none" stroke="black" d="M216.07,-870.65C251.61,-861.18 296.51,-849.9 337,-841.74 383.75,-832.32 436.11,-824.15 479.79,-817.98"/>
<polygon fill="black" stroke="black" points="480.41,-821.43 489.83,-816.57 479.44,-814.49 480.41,-821.43"/>
<text text-anchor="middle" x="406.5" y="-844.74" font-family="Helvetica,sans-Serif" font-size="10.00">amplifier&#45;digital&#45;twin launch</text>
</g>
<!-- push_provider&#45;&gt;load_profile -->
<g id="edge6" class="edge">
<title>push_provider&#45;&gt;load_profile</title>
<path fill="none" stroke="black" d="M441.89,-870.73C467.31,-858.32 501.29,-841.73 528.55,-828.42"/>
<polygon fill="black" stroke="black" points="530.44,-831.39 537.89,-823.86 527.37,-825.1 530.44,-831.39"/>
</g>
<!-- profile -->
<g id="node6" class="node">
<title>profile</title>
<polygon fill="#fff3cd" stroke="black" points="708.5,-907.74 535.5,-907.74 535.5,-871.74 714.5,-871.74 714.5,-901.74 708.5,-907.74"/>
<polyline fill="none" stroke="black" points="708.5,-907.74 708.5,-901.74 "/>
<polyline fill="none" stroke="black" points="714.5,-901.74 708.5,-901.74 "/>
<text text-anchor="middle" x="625" y="-886.04" font-family="Helvetica,sans-Serif" font-size="14.00">amplifier&#45;user&#45;sim.yaml</text>
</g>
<!-- profile&#45;&gt;load_profile -->
<g id="edge7" class="edge">
<title>profile&#45;&gt;load_profile</title>
<path fill="none" stroke="black" d="M614.64,-871.54C607.87,-860.31 598.9,-845.41 591.2,-832.63"/>
<polygon fill="black" stroke="black" points="594.02,-830.54 585.87,-823.78 588.03,-834.15 594.02,-830.54"/>
</g>
<!-- vars -->
<g id="node7" class="node">
<title>vars</title>
<polygon fill="#fff3cd" stroke="black" points="903,-908.74 733,-908.74 733,-870.74 909,-870.74 909,-902.74 903,-908.74"/>
<polyline fill="none" stroke="black" points="903,-908.74 903,-902.74 "/>
<polyline fill="none" stroke="black" points="909,-902.74 903,-902.74 "/>
<text text-anchor="middle" x="821" y="-893.54" font-family="Helvetica,sans-Serif" font-size="14.00">&#45;&#45;var GITEA_URL=...</text>
<text text-anchor="middle" x="821" y="-878.54" font-family="Helvetica,sans-Serif" font-size="14.00">&#45;&#45;var GITEA_TOKEN=...</text>
</g>
<!-- vars&#45;&gt;load_profile -->
<g id="edge8" class="edge">
<title>vars&#45;&gt;load_profile</title>
<path fill="none" stroke="black" d="M767.62,-870.73C729.63,-857.91 678.43,-840.64 638.37,-827.12"/>
<polygon fill="black" stroke="black" points="639.29,-823.74 628.7,-823.86 637.05,-830.37 639.29,-823.74"/>
</g>
<!-- create_container -->
<g id="node9" class="node">
<title>create_container</title>
<path fill="#e8f0fe" stroke="black" d="M598.5,-748.74C598.5,-748.74 421.5,-748.74 421.5,-748.74 415.5,-748.74 409.5,-742.74 409.5,-736.74 409.5,-736.74 409.5,-722.74 409.5,-722.74 409.5,-716.74 415.5,-710.74 421.5,-710.74 421.5,-710.74 598.5,-710.74 598.5,-710.74 604.5,-710.74 610.5,-716.74 610.5,-722.74 610.5,-722.74 610.5,-736.74 610.5,-736.74 610.5,-742.74 604.5,-748.74 598.5,-748.74"/>
<text text-anchor="middle" x="510" y="-733.54" font-family="Helvetica,sans-Serif" font-size="14.00">Create Incus container</text>
<text text-anchor="middle" x="510" y="-718.54" font-family="Helvetica,sans-Serif" font-size="14.00">base image: ubuntu:24.04</text>
</g>
<!-- load_profile&#45;&gt;create_container -->
<g id="edge9" class="edge">
<title>load_profile&#45;&gt;create_container</title>
<path fill="none" stroke="black" d="M558.93,-785.7C551.04,-776.83 541.4,-766 532.76,-756.3"/>
<polygon fill="black" stroke="black" points="535.37,-753.97 526.11,-748.83 530.14,-758.63 535.37,-753.97"/>
</g>
<!-- detect_gateway -->
<g id="node10" class="node">
<title>detect_gateway</title>
<path fill="#e8f0fe" stroke="black" d="M483,-673.74C483,-673.74 261,-673.74 261,-673.74 255,-673.74 249,-667.74 249,-661.74 249,-661.74 249,-647.74 249,-647.74 249,-641.74 255,-635.74 261,-635.74 261,-635.74 483,-635.74 483,-635.74 489,-635.74 495,-641.74 495,-647.74 495,-647.74 495,-661.74 495,-661.74 495,-667.74 489,-673.74 483,-673.74"/>
<text text-anchor="middle" x="372" y="-658.54" font-family="Helvetica,sans-Serif" font-size="14.00">Detect host gateway IP</text>
<text text-anchor="middle" x="372" y="-643.54" font-family="Helvetica,sans-Serif" font-size="14.00">rewrite localhost / 127.0.0.1 vars</text>
</g>
<!-- create_container&#45;&gt;detect_gateway -->
<g id="edge10" class="edge">
<title>create_container&#45;&gt;detect_gateway</title>
<path fill="none" stroke="black" d="M475.89,-710.7C457.56,-701 434.77,-688.95 415.22,-678.6"/>
<polygon fill="black" stroke="black" points="416.67,-675.41 406.2,-673.83 413.4,-681.6 416.67,-675.41"/>
</g>
<!-- setup_proxy -->
<g id="node11" class="node">
<title>setup_proxy</title>
<path fill="#e8f0fe" stroke="black" d="M460,-598.74C460,-598.74 214,-598.74 214,-598.74 208,-598.74 202,-592.74 202,-586.74 202,-586.74 202,-572.74 202,-572.74 202,-566.74 208,-560.74 214,-560.74 214,-560.74 460,-560.74 460,-560.74 466,-560.74 472,-566.74 472,-572.74 472,-572.74 472,-586.74 472,-586.74 472,-592.74 466,-598.74 460,-598.74"/>
<text text-anchor="middle" x="337" y="-583.54" font-family="Helvetica,sans-Serif" font-size="14.00">Install mitmproxy</text>
<text text-anchor="middle" x="337" y="-568.54" font-family="Helvetica,sans-Serif" font-size="14.00">rewrite provider GitHub URL to Gitea</text>
</g>
<!-- detect_gateway&#45;&gt;setup_proxy -->
<g id="edge11" class="edge">
<title>detect_gateway&#45;&gt;setup_proxy</title>
<path fill="none" stroke="black" d="M363.35,-635.7C359.35,-627.36 354.52,-617.28 350.09,-608.04"/>
<polygon fill="black" stroke="black" points="353.15,-606.33 345.67,-598.83 346.84,-609.36 353.15,-606.33"/>
</g>
<!-- setup_pypi -->
<g id="node12" class="node">
<title>setup_pypi</title>
<path fill="#e8f0fe" stroke="black" d="M473.5,-523.74C473.5,-523.74 182.5,-523.74 182.5,-523.74 176.5,-523.74 170.5,-517.74 170.5,-511.74 170.5,-511.74 170.5,-497.74 170.5,-497.74 170.5,-491.74 176.5,-485.74 182.5,-485.74 182.5,-485.74 473.5,-485.74 473.5,-485.74 479.5,-485.74 485.5,-491.74 485.5,-497.74 485.5,-497.74 485.5,-511.74 485.5,-511.74 485.5,-517.74 479.5,-523.74 473.5,-523.74"/>
<text text-anchor="middle" x="328" y="-508.54" font-family="Helvetica,sans-Serif" font-size="14.00">Clone amplifier&#45;core from Gitea on the host</text>
<text text-anchor="middle" x="328" y="-493.54" font-family="Helvetica,sans-Serif" font-size="14.00">build wheel + push to local pypiserver</text>
</g>
<!-- setup_proxy&#45;&gt;setup_pypi -->
<g id="edge12" class="edge">
<title>setup_proxy&#45;&gt;setup_pypi</title>
<path fill="none" stroke="black" d="M334.78,-560.7C333.78,-552.62 332.58,-542.92 331.47,-533.92"/>
<polygon fill="black" stroke="black" points="334.93,-533.33 330.23,-523.83 327.98,-534.18 334.93,-533.33"/>
</g>
<!-- write_env -->
<g id="node13" class="node">
<title>write_env</title>
<path fill="#e8f0fe" stroke="black" d="M478.5,-448.74C478.5,-448.74 173.5,-448.74 173.5,-448.74 167.5,-448.74 161.5,-442.74 161.5,-436.74 161.5,-436.74 161.5,-407.74 161.5,-407.74 161.5,-401.74 167.5,-395.74 173.5,-395.74 173.5,-395.74 478.5,-395.74 478.5,-395.74 484.5,-395.74 490.5,-401.74 490.5,-407.74 490.5,-407.74 490.5,-436.74 490.5,-436.74 490.5,-442.74 484.5,-448.74 478.5,-448.74"/>
<text text-anchor="middle" x="326" y="-433.54" font-family="Helvetica,sans-Serif" font-size="14.00">Write environment variables</text>
<text text-anchor="middle" x="326" y="-418.54" font-family="Helvetica,sans-Serif" font-size="14.00">HTTP(S)_PROXY, UV_EXTRA_INDEX_URL,</text>
<text text-anchor="middle" x="326" y="-403.54" font-family="Helvetica,sans-Serif" font-size="14.00">PIP_EXTRA_INDEX_URL, ANTHROPIC_API_KEY</text>
</g>
<!-- setup_pypi&#45;&gt;write_env -->
<g id="edge13" class="edge">
<title>setup_pypi&#45;&gt;write_env</title>
<path fill="none" stroke="black" d="M327.55,-485.47C327.35,-477.59 327.11,-468.08 326.89,-458.89"/>
<polygon fill="black" stroke="black" points="330.38,-458.67 326.63,-448.76 323.38,-458.84 330.38,-458.67"/>
</g>
<!-- run_setup -->
<g id="node14" class="node">
<title>run_setup</title>
<path fill="#e8f0fe" stroke="black" d="M415,-358.74C415,-358.74 237,-358.74 237,-358.74 231,-358.74 225,-352.74 225,-346.74 225,-346.74 225,-287.74 225,-287.74 225,-281.74 231,-275.74 237,-275.74 237,-275.74 415,-275.74 415,-275.74 421,-275.74 427,-281.74 427,-287.74 427,-287.74 427,-346.74 427,-346.74 427,-352.74 421,-358.74 415,-358.74"/>
<text text-anchor="middle" x="326" y="-343.54" font-family="Helvetica,sans-Serif" font-size="14.00">Run provision.setup_cmds</text>
<text text-anchor="middle" x="326" y="-328.54" font-family="Helvetica,sans-Serif" font-size="14.00">install git/curl/uv,</text>
<text text-anchor="middle" x="326" y="-313.54" font-family="Helvetica,sans-Serif" font-size="14.00">install Amplifier,</text>
<text text-anchor="middle" x="326" y="-298.54" font-family="Helvetica,sans-Serif" font-size="14.00">write settings.yaml,</text>
<text text-anchor="middle" x="326" y="-283.54" font-family="Helvetica,sans-Serif" font-size="14.00">validate, create workspace</text>
</g>
<!-- write_env&#45;&gt;run_setup -->
<g id="edge14" class="edge">
<title>write_env&#45;&gt;run_setup</title>
<path fill="none" stroke="black" d="M326,-395.51C326,-387.46 326,-378.28 326,-369.12"/>
<polygon fill="black" stroke="black" points="329.5,-368.85 326,-358.85 322.5,-368.85 329.5,-368.85"/>
</g>
<!-- ready -->
<g id="node15" class="node">
<title>ready</title>
<ellipse fill="#d4edda" stroke="black" cx="326" cy="-211.87" rx="285.84" ry="26.74"/>
<text text-anchor="middle" x="326" y="-215.67" font-family="Helvetica,sans-Serif" font-size="14.00">Environment ready</text>
<text text-anchor="middle" x="326" y="-200.67" font-family="Helvetica,sans-Serif" font-size="14.00">Amplifier installed in /root/.local/share/uv/tools/amplifier</text>
</g>
<!-- run_setup&#45;&gt;ready -->
<g id="edge15" class="edge">
<title>run_setup&#45;&gt;ready</title>
<path fill="none" stroke="black" d="M326,-275.68C326,-266.92 326,-257.7 326,-249.11"/>
<polygon fill="black" stroke="black" points="329.5,-249.02 326,-239.02 322.5,-249.02 329.5,-249.02"/>
</g>
<!-- exec_shell -->
<g id="node16" class="node">
<title>exec_shell</title>
<path fill="#f8d7da" stroke="black" d="M432,-127C432,-127 220,-127 220,-127 214,-127 208,-121 208,-115 208,-115 208,-101 208,-101 208,-95 214,-89 220,-89 220,-89 432,-89 432,-89 438,-89 444,-95 444,-101 444,-101 444,-115 444,-115 444,-121 438,-127 432,-127"/>
<text text-anchor="middle" x="326" y="-111.8" font-family="Helvetica,sans-Serif" font-size="14.00">Exec into the environment</text>
<text text-anchor="middle" x="326" y="-96.8" font-family="Helvetica,sans-Serif" font-size="14.00">amplifier&#45;digital&#45;twin exec &lt;id&gt;</text>
</g>
<!-- ready&#45;&gt;exec_shell -->
<g id="edge16" class="edge">
<title>ready&#45;&gt;exec_shell</title>
<path fill="none" stroke="black" stroke-dasharray="5,2" d="M326,-184.9C326,-170.39 326,-152.28 326,-137.39"/>
<polygon fill="black" stroke="black" points="329.5,-137.21 326,-127.21 322.5,-137.21 329.5,-137.21"/>
</g>
<!-- iterate -->
<g id="node18" class="node">
<title>iterate</title>
<path fill="#f8d7da" stroke="black" d="M726,-127C726,-127 474,-127 474,-127 468,-127 462,-121 462,-115 462,-115 462,-101 462,-101 462,-95 468,-89 474,-89 474,-89 726,-89 726,-89 732,-89 738,-95 738,-101 738,-101 738,-115 738,-115 738,-121 732,-127 726,-127"/>
<text text-anchor="middle" x="600" y="-111.8" font-family="Helvetica,sans-Serif" font-size="14.00">Push new repo changes to Gitea</text>
<text text-anchor="middle" x="600" y="-96.8" font-family="Helvetica,sans-Serif" font-size="14.00">and relaunch for a fresh environment</text>
</g>
<!-- ready&#45;&gt;iterate -->
<g id="edge18" class="edge">
<title>ready&#45;&gt;iterate</title>
<path fill="none" stroke="black" stroke-dasharray="5,2" d="M393.73,-185.69C439.26,-168.76 498.63,-146.69 541.98,-130.57"/>
<polygon fill="black" stroke="black" points="543.38,-133.79 551.53,-127.02 540.94,-127.23 543.38,-133.79"/>
</g>
<!-- run_amplifier -->
<g id="node17" class="node">
<title>run_amplifier</title>
<path fill="#f8d7da" stroke="black" d="M479.5,-52C479.5,-52 220.5,-52 220.5,-52 214.5,-52 208.5,-46 208.5,-40 208.5,-40 208.5,-28 208.5,-28 208.5,-22 214.5,-16 220.5,-16 220.5,-16 479.5,-16 479.5,-16 485.5,-16 491.5,-22 491.5,-28 491.5,-28 491.5,-40 491.5,-40 491.5,-46 485.5,-52 479.5,-52"/>
<text text-anchor="middle" x="350" y="-30.3" font-family="Helvetica,sans-Serif" font-size="14.00">Run Amplifier from /home/user/project</text>
</g>
<!-- exec_shell&#45;&gt;run_amplifier -->
<g id="edge17" class="edge">
<title>exec_shell&#45;&gt;run_amplifier</title>
<path fill="none" stroke="black" stroke-dasharray="5,2" d="M332.06,-88.83C334.76,-80.72 338,-70.99 340.98,-62.05"/>
<polygon fill="black" stroke="black" points="344.35,-63.01 344.19,-52.42 337.71,-60.8 344.35,-63.01"/>
</g>
<!-- iterate&#45;&gt;load_profile -->
<g id="edge19" class="edge">
<title>iterate&#45;&gt;load_profile</title>
<path fill="none" stroke="black" stroke-dasharray="5,2" d="M612,-127.3C623.78,-147.07 640,-179.9 640,-210.87 640,-730.74 640,-730.74 640,-730.74 640,-750.07 627.13,-766.65 612.85,-779.1"/>
<polygon fill="black" stroke="black" points="610.41,-776.57 604.84,-785.59 614.81,-782.01 610.41,-776.57"/>
<text text-anchor="middle" x="671.5" y="-502.24" font-family="Helvetica,sans-Serif" font-size="10.00">launch again</text>
</g>
</g>
</svg>
